<mxfile host="app.diagrams.net" modified="2023-03-21T17:45:06.986Z" agent="5.0 (Macintosh; Intel Mac OS X 10_15_7) AppleWebKit/605.1.15 (KHTML, like Gecko) Version/16.0 Safari/605.1.15" etag="WgfWhdsXJxOP7DV0R6-F" version="21.0.8" type="github">
  <diagram name="Pagina-1" id="Jkp_H-9HCO1r3uxwDV1a">
    <mxGraphModel dx="781" dy="450" grid="1" gridSize="10" guides="1" tooltips="1" connect="1" arrows="1" fold="1" page="1" pageScale="1" pageWidth="827" pageHeight="1169" math="0" shadow="0">
      <root>
        <mxCell id="0" />
        <mxCell id="1" parent="0" />
        <mxCell id="cyuGqw344tuczq4UDQs3-1" value="" style="verticalLabelPosition=bottom;shadow=0;dashed=0;align=center;html=1;verticalAlign=top;strokeWidth=1;shape=mxgraph.mockup.graphics.pieChart;parts=30,10,60;partColors=#FFFF66,#FF3333,#007FFF;strokeWidth=2;gradientColor=none;connectable=1;partsCount=3;" vertex="1" parent="1">
          <mxGeometry x="284" y="230" width="258" height="280" as="geometry" />
        </mxCell>
        <mxCell id="cyuGqw344tuczq4UDQs3-3" value="&lt;b&gt;60%&lt;/b&gt;" style="text;html=1;strokeColor=none;fillColor=none;align=center;verticalAlign=middle;whiteSpace=wrap;rounded=0;" vertex="1" parent="1">
          <mxGeometry x="410" y="400" width="100" height="20" as="geometry" />
        </mxCell>
        <mxCell id="cyuGqw344tuczq4UDQs3-5" value="&lt;b&gt;10%&lt;/b&gt;" style="text;html=1;strokeColor=none;fillColor=none;align=center;verticalAlign=middle;whiteSpace=wrap;rounded=0;" vertex="1" parent="1">
          <mxGeometry x="310" y="390" width="90" height="40" as="geometry" />
        </mxCell>
        <mxCell id="cyuGqw344tuczq4UDQs3-6" value="&lt;b&gt;30%&lt;/b&gt;" style="text;html=1;strokeColor=none;fillColor=none;align=center;verticalAlign=middle;whiteSpace=wrap;rounded=0;" vertex="1" parent="1">
          <mxGeometry x="315" y="290" width="110" height="30" as="geometry" />
        </mxCell>
        <mxCell id="cyuGqw344tuczq4UDQs3-7" value="" style="whiteSpace=wrap;html=1;aspect=fixed;fillColor=#007FFF;" vertex="1" parent="1">
          <mxGeometry x="160" y="100" width="20" height="20" as="geometry" />
        </mxCell>
        <mxCell id="cyuGqw344tuczq4UDQs3-9" value="" style="whiteSpace=wrap;html=1;aspect=fixed;fillColor=#FFFF66;strokeColor=#000000;" vertex="1" parent="1">
          <mxGeometry x="160" y="140" width="20" height="20" as="geometry" />
        </mxCell>
        <mxCell id="cyuGqw344tuczq4UDQs3-10" value="" style="whiteSpace=wrap;html=1;aspect=fixed;fillColor=#FF3333;strokeColor=#000000;" vertex="1" parent="1">
          <mxGeometry x="160" y="180" width="20" height="20" as="geometry" />
        </mxCell>
        <mxCell id="cyuGqw344tuczq4UDQs3-14" value="Difficoltà Semplice" style="text;html=1;strokeColor=none;fillColor=none;align=center;verticalAlign=middle;whiteSpace=wrap;rounded=0;" vertex="1" parent="1">
          <mxGeometry x="188" y="110" width="150" height="10" as="geometry" />
        </mxCell>
        <mxCell id="cyuGqw344tuczq4UDQs3-15" value="Difficoltà Media" style="text;html=1;strokeColor=none;fillColor=none;align=center;verticalAlign=middle;whiteSpace=wrap;rounded=0;" vertex="1" parent="1">
          <mxGeometry x="195" y="150" width="120" height="10" as="geometry" />
        </mxCell>
        <mxCell id="cyuGqw344tuczq4UDQs3-19" value="Difficoltà Difficile" style="text;html=1;strokeColor=none;fillColor=none;align=center;verticalAlign=middle;whiteSpace=wrap;rounded=0;" vertex="1" parent="1">
          <mxGeometry x="198" y="190" width="120" height="10" as="geometry" />
        </mxCell>
      </root>
    </mxGraphModel>
  </diagram>
</mxfile>
